# xmcd
#
# Track frame offsets:
#	150
#	23827
#	46020
#	64070
#	99460
#	125422
#	150507
#	166420
#	190600
#	209632
#	235545
#	261247
#	280417
#
# Disc length: 4260 seconds
#
# Revision: 1
# Processed by: cddbd v1.5.1PL0 Copyright (c) Steve Scherf et al.
# Submitted via: audiograbber 1.83.01
#
DISCID=ab10a20d
DTITLE=Bonnie Tyler - free spirit
DYEAR=1995
DGENRE=
TTITLE0=limelight (overture mix)
TTITLE1=nothing to do with love
TTITLE2=you`re the one
TTITLE3=making love (out of nothing at all)
TTITLE4=given it all
TTITLE5=what you got
TTITLE6=time mends a broken heart
TTITLE7=driving me wild
TTITLE8=sexual device
TTITLE9=make it right tonight
TTITLE10=all night to know you
TTITLE11=forget her
TTITLE12=two out of three ain`t bad
EXTD=
EXTT0=
EXTT1=
EXTT2=
EXTT3=
EXTT4=
EXTT5=
EXTT6=
EXTT7=
EXTT8=
EXTT9=
EXTT10=
EXTT11=
EXTT12=
PLAYORDER=
